<?xml version="1.0" encoding="UTF-8" standalone="no"?>
<svg width="64" height="64" viewBox="0 0 64 64" xmlns="http://www.w3.org/2000/svg">
  <!-- Background -->
  <rect x="4" y="4" width="56" height="56" rx="6" fill="#2c2c32" />

  <!-- Document outline -->
  <rect x="14" y="10" width="36" height="32" rx="2" fill="#ffffff" />

  <!-- Text lines -->
  <rect x="18" y="16" width="28" height="1.5" rx="0.75" fill="#0098ff" />
  <rect x="18" y="20" width="24" height="1.5" rx="0.75" fill="#0098ff" />
  <rect x="18" y="24" width="26" height="1.5" rx="0.75" fill="#0098ff" />
  <rect x="18" y="28" width="22" height="1.5" rx="0.75" fill="#0098ff" />
  <rect x="18" y="32" width="25" height="1.5" rx="0.75" fill="#0098ff" />

  <!-- Line counter indicator -->
  <circle cx="48" cy="16" r="8" fill="#e51400" />
  <text x="48" y="19" font-family="Arial, sans-serif" font-size="7" font-weight="bold" text-anchor="middle" fill="#ffffff">8</text>

  <!-- Ruler marks on the side -->
  <rect x="12" y="16" width="2" height="0.5" fill="#ffffff" />
  <rect x="12" y="24" width="2" height="0.5" fill="#ffffff" />
  <rect x="12" y="32" width="2" height="0.5" fill="#ffffff" />

  <!-- Logo Text -->
  <rect x="14" y="46" width="36" height="14" rx="2" fill="#0098ff" />
  <text x="32" y="53" font-family="Segoe UI, Arial, sans-serif" font-size="6" font-weight="bold" text-anchor="middle" fill="#ffffff">FILE LENGTH</text>
  <text x="32" y="59" font-family="Segoe UI, Arial, sans-serif" font-size="6" font-weight="bold" text-anchor="middle" fill="#ffffff">LINT</text>
</svg>
