<?xml version="1.0" encoding="UTF-8" standalone="no"?>
<svg width="128" height="128" viewBox="0 0 128 128" xmlns="http://www.w3.org/2000/svg">
  <!-- Background -->
  <rect x="8" y="8" width="112" height="112" rx="12" fill="#2c2c32" />

  <!-- Document outline -->
  <rect x="28" y="20" width="72" height="70" rx="4" fill="#ffffff" />

  <!-- Text lines -->
  <rect x="36" y="32" width="56" height="3" rx="1.5" fill="#0098ff" />
  <rect x="36" y="40" width="48" height="3" rx="1.5" fill="#0098ff" />
  <rect x="36" y="48" width="52" height="3" rx="1.5" fill="#0098ff" />
  <rect x="36" y="56" width="44" height="3" rx="1.5" fill="#0098ff" />
  <rect x="36" y="64" width="50" height="3" rx="1.5" fill="#0098ff" />
  <rect x="36" y="72" width="46" height="3" rx="1.5" fill="#0098ff" />

  <!-- Line counter indicator -->
  <circle cx="96" cy="32" r="16" fill="#e51400" />
  <text x="96" y="37" font-family="Arial, sans-serif" font-size="14" font-weight="bold" text-anchor="middle" fill="#ffffff">8</text>

  <!-- Ruler marks on the side -->
  <rect x="24" y="32" width="4" height="1" fill="#ffffff" />
  <rect x="24" y="48" width="4" height="1" fill="#ffffff" />
  <rect x="24" y="64" width="4" height="1" fill="#ffffff" />

  <!-- Logo Text -->
  <rect x="28" y="95" width="72" height="25" rx="4" fill="#0098ff" />
  <text x="64" y="109" font-family="Segoe UI, Arial, sans-serif" font-size="12" font-weight="bold" text-anchor="middle" fill="#ffffff">FILE LENGTH</text>
  <text x="64" y="119" font-family="Segoe UI, Arial, sans-serif" font-size="12" font-weight="bold" text-anchor="middle" fill="#ffffff">LINT</text>
</svg>
